<?xml version="1.0" encoding="UTF-8" standalone="no"?>
<svg width="48px" height="48px" viewBox="0 0 48 48" version="1.1" xmlns="http://www.w3.org/2000/svg" xmlns:xlink="http://www.w3.org/1999/xlink">
    <!-- Generator: Sketch 48.2 (47327) - http://www.bohemiancoding.com/sketch -->
    <title>Symbol,-Version-4.2</title>
    <desc>Created with Sketch.</desc>
    <defs></defs>
    <g id="GOV_RU_Landing-+News" stroke="none" stroke-width="1" fill="none" fill-rule="evenodd" transform="translate(-160.000000, -124.000000)">
        <g id="Group-35" transform="translate(-26.000000, 0.000000)" fill="#FFFFFF" fill-rule="nonzero">
            <g id="Group-21" transform="translate(26.000000, 0.000000)">
                <g id="Group-4">
                    <g id="Group-15" transform="translate(160.000000, 120.000000)">
                        <g id="Group-25" transform="translate(0.000000, 4.000000)">
                            <path d="M32.867503,16.1182749 C32.1171037,15.4634553 31.0379049,15.4783375 30.4187055,15.6686738 C30.8243051,15.1728595 31.7691041,14.7663387 32.0475038,14.7169922 C32.2595037,14.7961032 32.867503,15.4180252 32.867503,16.1182749 Z M35.2635005,13.4065698 C34.7699011,10.7786753 28.6347072,12.5199002 25.5451104,11.4037304 C25.4859104,12.1697753 26.4963094,13.3971704 27.4627084,13.8514711 C25.8107102,15.2786019 24.3275116,18.1540118 24.0283119,21.6670094 C23.7299122,18.1540118 22.2467137,15.2786019 20.5947153,13.8514711 C21.5611144,13.3971704 22.5723133,12.1697753 22.5123134,11.4037304 C19.4227165,12.5199002 13.2875227,10.7786753 12.7931232,13.4065698 C12.6891233,13.9626964 12.957923,14.8102022 13.2483227,15.0538014 C13.3003227,14.877564 13.5715224,14.3010721 14.4267215,14.1718314 C18.7491171,13.5217115 22.3579136,20.1529348 19.1003169,22.8340921 C19.0507169,22.8748225 19.0787169,22.9500172 19.1459168,22.9500172 L28.912307,22.9500172 C28.978707,22.9500172 29.0067068,22.8748225 28.9579069,22.8340921 C25.6995102,20.1529348 29.3083066,13.5217115 33.6307022,14.1718314 C34.4867014,14.3010721 34.7571011,14.877564 34.8091011,15.0538014 C35.0995008,14.8102022 35.3683005,13.9626964 35.2635005,13.4065698 Z M36.3146995,7.37533657 C36.2370996,7.12703775 38.7714971,7.12077155 38.7714971,8.69985804 C38.7714971,9.75806531 37.2554985,10.2593626 37.2554985,11.357517 C37.2554985,11.8689969 37.8082981,12.2441866 37.9778978,12.2441866 C37.5874983,10.48103 39.2018966,11.4037304 39.6378962,11.73349 C38.7714971,9.36251042 40.7218952,9.37739268 40.5298954,8.29020415 C40.3962954,7.53042543 38.7010972,7.7599256 38.0874978,7.37533657 C36.9986988,6.69310227 35.7107002,4.0385764 34.861901,6.69310227 C36.4442994,8.15548051 35.5235004,10.3079258 33.5147024,10.3079258 C33.5147024,10.3079258 33.5035024,10.6235864 33.5219024,10.6486513 C35.9178999,10.531943 36.7530991,8.77896903 36.3146995,7.37533657 Z M8.36112763,11.73349 C8.7971272,11.4037304 10.4115256,10.48103 10.021926,12.2441866 C10.1907258,12.2441866 10.7435252,11.8689969 10.7435252,11.357517 C10.7435252,10.2593626 9.22752676,9.75806531 9.22752676,8.69985804 C9.22752676,7.12077155 11.7619242,7.12703775 11.6843243,7.37533657 C11.2467247,8.77896903 12.0819239,10.531943 14.4779215,10.6486513 C14.4955215,10.6235864 14.4843215,10.3079258 14.4843215,10.3079258 C12.4763235,10.3079258 11.5555244,8.15548051 13.1371228,6.69310227 C12.2883237,4.0385764 11.000325,6.69310227 9.91152607,7.37533657 C9.29792669,7.7599256 7.60272839,7.53042543 7.46912852,8.29020415 C7.27792873,9.37739268 9.22752676,9.36251042 8.36112763,11.73349 Z M15.1643208,16.1182749 C15.91552,15.4634553 16.9947189,15.4783375 17.6131183,15.6686738 C17.2091188,15.1728595 16.2627197,14.7663387 15.98512,14.7169922 C15.7731202,14.7961032 15.1643208,15.4180252 15.1643208,16.1182749 Z M25.1683107,1.41851471 L23.9995119,0 L22.8307131,1.41851471 L23.9995119,2.91144075 L25.1683107,1.41851471 Z M31.840304,5.70773976 L31.0091049,4.69966222 L30.1787058,5.70773976 L31.0091049,6.69310227 L31.840304,5.70773976 Z M38.5818973,34.8472121 L37.5282983,33.7373085 L36.4746994,34.8472121 L37.5282983,35.8208254 L38.5818973,34.8472121 Z M17.8211182,5.70773976 L16.9899189,4.69966222 L16.1595198,5.70773976 L16.9899189,6.69310227 L17.8211182,5.70773976 Z M15.4403205,10.6486513 L18.5403173,10.6486513 C21.1467147,10.6486513 22.3195136,9.05624909 22.6739133,7.67533168 L25.3259106,7.67533168 C25.6803102,9.05624909 26.8523091,10.6486513 29.4595064,10.6486513 L32.5595034,10.6486513 C32.5595034,10.6486513 33.1019028,9.91628728 33.2379026,9.55363002 C33.7275021,8.24869047 33.1019028,7.64008422 32.1891036,7.64008422 L31.0091049,8.7045577 L29.8291061,7.64008422 C28.916307,7.64008422 28.2907076,8.24869047 28.7803071,9.55363002 C28.842707,9.72046802 28.9923068,9.96563373 29.1339067,10.1810349 C28.0339079,10.0306457 26.6299093,9.2810496 26.3219096,7.67533168 C26.3219096,7.67533168 27.1347087,6.38997407 27.3387085,5.86987812 C28.0715079,3.99941255 27.1355088,3.23493416 25.7667101,3.23493416 L23.9995119,5.30278554 L22.2323137,3.23493416 C20.863515,3.23493416 19.927516,3.99941255 20.6611153,5.86987812 C20.8643151,6.38997407 21.6779143,7.67533168 21.6779143,7.67533168 C21.3691146,9.2810496 19.965116,10.0306457 18.8651171,10.1810349 C19.0075169,9.96563373 19.1563168,9.72046802 19.2187167,9.55363002 C19.7075163,8.24869047 19.0835169,7.64008422 18.1699178,7.64008422 L16.9899189,8.7045577 L15.8099202,7.64008422 C14.8963211,7.64008422 14.2723217,8.24869047 14.7611212,9.55363002 C14.8971211,9.91628728 15.4403205,10.6486513 15.4403205,10.6486513 Z M47.4906883,20.2140305 C46.892289,20.5155921 43.3818924,22.1526412 38.8850969,21.5471681 C38.9322969,21.3333334 38.9706969,21.1179322 39.0034969,20.9025311 C41.9962939,20.54614 44.4290913,20.0409262 45.9794898,19.1824547 C47.7466881,18.2033584 48.5194873,15.8660596 47.6274882,14.1271846 C47.6042881,14.0833211 47.5402883,14.0754883 47.5082882,14.1123024 C47.0194888,14.6723454 43.9458919,18.0004895 39.1034967,19.0351985 C39.0906968,18.7837667 39.0682968,18.5354677 39.0346969,18.2887355 C41.3866945,16.961081 43.6826921,15.4313409 44.776291,14.0324081 C46.4290894,11.9175601 46.2770895,9.219954 44.7042911,7.84451951 C44.6706911,7.81475499 44.6162911,7.82337104 44.5930913,7.86018506 C44.0954917,8.67714301 39.4378965,16.1707544 34.3243015,19.4056886 C34.2731016,19.4385862 34.2043017,19.4808832 34.1355017,19.5223968 C33.9891018,19.6109071 33.9731019,19.8004602 34.0979018,19.913252 C34.6875011,20.4450972 35.0539008,21.185294 35.0539008,22.0069516 C35.0539008,23.435649 33.9475019,24.6238802 32.4851034,24.8815783 C31.7419041,25.024918 30.6691052,24.9834043 29.6387063,24.6442453 C29.5923062,24.6293632 29.5443063,24.6599109 29.5443063,24.7061242 L29.5443063,29.2311156 C29.5443063,29.3039605 29.6555063,29.3219759 29.6819063,29.2522642 C30.3083056,27.600333 32.1835037,27.2494249 33.0035029,27.2494249 C33.2987026,29.0149312 33.825902,30.4773095 34.5107014,31.2645029 C35.6259002,32.5435942 37.4466984,32.5255789 38.2362976,31.6412591 C38.2634975,31.6107113 38.2554976,31.5629314 38.2186977,31.5425663 C37.754698,31.2770353 35.1003007,29.6548686 34.5691013,26.9964264 C34.778701,26.9243649 34.9835009,26.8429041 35.1795006,26.7465609 C36.0362998,28.1580262 37.2834986,29.4151859 38.2874975,29.8953347 C39.9738959,30.7005434 41.5178943,30.308905 42.2026937,29.130073 C42.2274936,29.0885594 42.1970936,29.036863 42.1466936,29.0321633 C41.1034948,28.949136 37.901898,28.0358349 36.5386994,25.8105449 C36.6946992,25.6679885 36.8474989,25.5191658 36.9898989,25.3609438 C38.4162974,26.4418662 40.4330953,27.3974641 41.877094,27.5925002 C43.5666923,27.821217 45.4810904,27.2846723 45.5274903,25.3288295 C45.5282902,25.2896658 45.4930904,25.2575512 45.4514903,25.2599012 C44.850691,25.2959318 40.873895,25.4682528 38.0402978,23.8492193 C38.1386977,23.6635825 38.2298976,23.4740296 38.3154975,23.28056 C38.3154975,23.28056 42.5970932,24.2878544 44.6258911,23.9541784 C46.6418891,23.6228521 47.8226879,22.1267929 47.5946881,20.2657268 C47.5882883,20.2195134 47.5338883,20.1920987 47.4906883,20.2140305 Z M9.6835263,23.28056 C9.76912622,23.4740296 9.86112612,23.6635825 9.95952603,23.8492193 C7.12672888,25.4674696 3.15153286,25.2967151 2.54833347,25.2599012 C2.50593351,25.2575512 2.47073356,25.2912323 2.47153355,25.3296129 C2.51873351,27.2846723 4.43233158,27.821217 6.12192988,27.5925002 C7.56512843,27.3974641 9.5827264,26.4418662 11.009125,25.3609438 C11.1523248,25.5191658 11.3043247,25.6679885 11.4603245,25.8105449 C10.0963259,28.0358349 6.8955291,28.949136 5.85233016,29.0321633 C5.80193021,29.036863 5.77233023,29.0885594 5.7963302,29.130073 C6.48112953,30.308905 8.02512797,30.7005434 9.71232627,29.8953347 C10.7155253,29.4151859 11.962724,28.1580262 12.8195232,26.7465609 C13.016323,26.8429041 13.2211227,26.9243649 13.4299225,26.9964264 C12.8987231,29.6548686 10.2443257,31.2770353 9.7803262,31.5425663 C9.74432624,31.5629314 9.73552626,31.6107113 9.76272622,31.6412591 C10.5523254,32.5255789 12.3739236,32.5435942 13.4891225,31.2645029 C14.1739218,30.4773095 14.7003213,29.0149312 14.995521,27.2494249 C15.8163201,27.2494249 17.6907182,27.600333 18.3171176,29.2522642 C18.3443177,29.3219759 18.4555175,29.3039605 18.4555175,29.2311156 L18.4555175,24.7061242 C18.4555175,24.6599109 18.4067176,24.6293632 18.3603175,24.6442453 C17.3299186,24.9834043 16.2571197,25.024918 15.5147204,24.8815783 C14.0515219,24.6238802 12.945123,23.435649 12.945123,22.0069516 C12.945123,21.185294 13.3123227,20.4443139 13.9011221,19.9124688 C14.0267219,19.8004602 14.009922,19.6109071 13.8643221,19.5223968 C13.7947222,19.4808832 13.7259222,19.4385862 13.6739223,19.4056886 C8.56352742,16.172321 3.90833211,8.68419251 3.40673262,7.86175161 C3.38353263,7.82337104 3.3275327,7.81553827 3.29313272,7.84530279 C1.7227343,9.22152056 1.56993446,11.9183434 3.2227328,14.0324081 C4.3163317,15.4313409 6.61232938,16.961081 8.96352703,18.2887355 C8.93072705,18.5354677 8.90752709,18.7837667 8.8955271,19.0351985 C4.05713196,18.0012728 0.985935044,14.6786117 0.492335539,14.1146522 C0.459535573,14.0762716 0.393935638,14.0841044 0.371535661,14.1279679 C-0.518863444,15.8676262 0.253935779,18.2033584 2.01953401,19.1824547 C3.56993245,20.0409262 6.00273,20.54614 8.99552699,20.9025311 C9.02832696,21.1179322 9.06672692,21.3333334 9.11392688,21.5471681 C4.62193139,22.1518578 1.11313492,20.5187252 0.509935523,20.2148137 C0.465135567,20.1920987 0.410735621,20.2202967 0.405135627,20.2672933 C0.177935856,22.1283596 1.35793467,23.6228521 3.37393264,23.9541784 C5.40193061,24.2878544 9.6835263,23.28056 9.6835263,23.28056 Z M37.5282983,37.2503059 L35.9682999,36.0283938 C35.3459006,36.3973173 34.888301,36.9832086 34.7107012,37.6701425 C33.7723021,37.8009498 31.2139047,37.2354238 31.4627045,36.8602341 C34.2667016,32.9344496 32.1219037,30.5971509 29.5443063,30.7271748 L29.5443063,33.3636853 C29.5443063,34.2104079 28.8019071,34.8965585 27.887508,34.8965585 L26.1075097,34.8965585 C24.830711,34.8965585 23.9995119,36.1740833 23.9995119,36.1740833 C23.9995119,36.1740833 23.1683128,34.8965585 21.8915141,34.8965585 L20.1115158,34.8965585 C19.1963168,34.8965585 18.4555175,34.2104079 18.4555175,33.3636853 L18.4555175,30.7271748 C15.8779201,30.5971509 13.7315222,32.9344496 16.5363194,36.8602341 C16.7827192,37.2315073 14.1531218,37.8260147 12.919523,37.6756255 C12.5947234,37.3403829 12.1259239,37.128898 11.6011244,37.128898 C11.3699246,37.128898 11.1499248,37.1711951 10.947525,37.2456064 C10.947525,37.2456064 6.1003299,32.6775346 6.01152999,32.6328879 L6.05152996,32.5404612 C6.32752968,32.0266315 5.90513011,31.4665883 5.63793036,31.5057522 C5.94833006,31.1352623 5.96273005,29.5130955 4.24113177,29.1379058 C4.29153172,29.4637491 4.3171317,30.1287512 4.3171317,30.1287512 C4.3171317,30.1287512 2.98833303,29.4136192 2.3211337,30.0308416 C1.73473429,30.721692 2.54833347,31.9749352 2.54833347,31.9749352 C2.54833347,31.9749352 1.86833416,31.991384 1.53313449,31.9631861 C2.02593399,33.6221668 3.67873234,33.5046752 4.03633198,33.1772654 C4.013132,33.4412298 4.6107314,33.8172027 5.11713089,33.5156412 L5.33953067,33.4083321 C5.37873062,33.4608118 10.0995259,37.9004259 10.0995259,37.9004259 C9.8827261,38.2207862 9.77952621,38.6139914 9.85072614,39.0330445 C9.96272602,39.6878642 10.5107255,40.2306752 11.2107248,40.3716649 C11.7051243,40.4703579 12.1699238,40.3747981 12.5427234,40.1578304 L13.7923222,41.3123808 C13.9035221,41.4126402 14.0539219,41.4753023 14.2219217,41.4635533 C14.5275214,41.443188 14.7563212,41.1964557 14.7331212,40.9136928 C14.7235212,40.7860185 14.6579213,40.6763598 14.5675214,40.5933324 C14.5475214,40.5714007 13.2947227,39.4137172 13.2947227,39.4137172 C14.3283216,38.6923191 16.2539197,38.1839723 17.8523181,38.1839723 C18.1331179,38.1839723 18.2651177,37.9474226 18.1683177,37.7155726 C17.4443186,35.9821805 19.0011169,34.7265875 20.6115153,35.748764 C21.3139146,36.1944486 22.0275138,37.0725021 22.5651133,38.5372302 C19.922716,39.1740344 16.6051193,40.9285749 15.93392,42.8436874 C15.6755203,43.5831009 16.5291194,44.5911783 17.5659183,44.7940472 C17.6051184,44.8026632 17.6427182,44.7768151 17.6499182,44.740001 C18.1915178,41.8810399 21.2803146,39.7505262 22.8875131,39.3886523 C22.9683129,39.6040535 22.9419129,39.5343418 23.0227129,39.7489597 C21.2723147,40.5729672 19.5747163,42.3110589 19.0899168,44.3773437 C18.8675171,45.3235424 19.927516,46.1765311 20.8027151,46.4099477 C20.846715,46.4216968 20.889915,46.391149 20.892315,46.3488521 C21.0587149,43.7358399 22.2179138,41.516816 23.2563126,40.5071719 C23.2843126,40.7014247 23.3059126,40.900377 23.3203126,41.1016792 C23.3203126,41.1016792 22.2571137,44.0507172 22.2571137,46.2023793 C22.2571137,47.2034073 23.7515122,47.9020904 23.972312,48 C24.2483117,47.9020904 25.7419102,47.2034073 25.7419102,46.2023793 C25.7419102,44.0507172 24.6787112,41.1016792 24.6787112,41.1016792 C24.6939112,40.900377 24.7147112,40.7014247 24.7435112,40.5071719 C25.7811101,41.516816 26.941109,43.7350566 27.1067088,46.3480688 C27.1091088,46.3903657 27.1531087,46.4216968 27.1963087,46.4099477 C28.0723078,46.1765311 29.1315067,45.3235424 28.909907,44.3773437 C28.4243075,42.3110589 26.7275092,40.5729672 24.9771109,39.7489597 C25.0571109,39.5343418 25.0307109,39.6040535 25.1115107,39.3886523 C26.7195091,39.7505262 29.8075061,41.8810399 30.3491056,44.740001 C30.3563056,44.7768151 30.3947055,44.8026632 30.4331055,44.7940472 C31.4691044,44.5911783 32.3243036,43.5831009 32.0643038,42.8436874 C31.3947044,40.9285749 28.0763079,39.1740344 25.4339105,38.5372302 C25.9723099,37.0725021 26.6859092,36.1944486 27.3883085,35.748764 C28.9979069,34.7265875 30.5547053,35.9821805 29.8307061,37.7155726 C29.7339061,37.9474226 29.865106,38.1839723 30.1467057,38.1839723 C31.954704,38.1839723 34.1819017,38.8340921 35.0635008,39.7058796 C35.6267003,40.547119 36.6674991,41.0852304 37.8418981,40.9700887 C39.1762967,40.8400646 40.2642956,39.8421697 40.4146955,38.6085084 C40.5458952,37.527586 39.9842958,36.5571058 39.0890967,36.0283938 L37.5282983,37.2503059 Z M26.0299099,29.376022 C26.5859094,29.1708034 27.4571085,29.3368582 27.4275084,30.1358007 C27.4203084,30.3167377 27.6755083,30.3167377 27.6939081,30.1318844 C27.8603081,28.9358202 27.0483088,28.5911784 26.1987097,28.731385 C26.0931098,28.3201645 26.0067098,27.9606404 25.9083099,27.6042493 C25.8299101,27.3160034 25.8011102,26.7747589 26.1363097,26.7747589 C26.3171096,26.7747589 26.2443096,27.278406 26.2275096,27.4953739 C26.2123097,27.6857101 26.2811097,27.8008519 26.4363094,27.8063349 C26.5331094,27.8102512 26.6539092,27.6872767 26.7259092,27.6058158 C27.2123087,27.0583053 27.3251086,26.2107994 26.7555091,25.8019289 C26.2787097,25.4588536 25.0851108,25.7142019 24.7571112,26.2029667 C24.7075112,26.0188966 24.4707114,25.7149851 24.3571116,25.5826112 C24.2467117,25.4533706 24.2179117,25.3648603 24.3707116,25.2512851 C24.4427115,25.1964557 24.6603112,24.9810546 24.6603112,24.7586039 C24.6603112,24.6270132 24.5579114,24.3841974 24.2323117,24.3841974 C23.9755119,24.3841974 23.6899122,24.561218 23.6899122,24.9559897 C23.6899122,25.0437167 23.7115122,25.1377099 23.7683122,25.2387526 C23.6059123,25.2121213 23.1651127,25.2230871 22.938713,25.2786998 L26.0691098,33.8297352 C26.965109,33.3895336 27.6219082,32.6924169 27.6219082,31.9443873 C27.6219082,31.3067998 26.6787092,31.5182847 26.2203096,32.0156656 C26.0731098,31.2073237 25.9419099,30.4608607 25.7987102,29.7167474 C25.7595101,29.511529 25.86431,29.4379008 26.0299099,29.376022 Z M21.6035144,23.5672394 L22.2611137,25.3860088 C21.6979142,25.5191658 20.7923152,25.9280365 20.7923152,26.4692809 C20.7923152,27.1898957 22.0731138,27.6590787 22.8139131,27.6026828 C22.7771132,27.767171 22.819513,27.9136437 22.9347129,28.0475841 C22.6659132,28.0475841 22.1587138,28.1721251 21.992314,28.3507123 C21.5995143,27.9864885 20.9851149,27.8541148 20.6931152,28.075782 C20.3995155,28.299016 20.3907155,28.6773389 20.6971152,29.1050082 C20.910715,29.4010869 20.9907149,29.6932493 20.7507151,30.0363246 C21.6435142,30.0363246 21.3147146,28.880991 21.6643143,28.880991 C21.6187143,29.1050082 21.6467143,29.3642728 21.7483142,29.6517354 C21.8155141,29.842855 21.8155141,29.978362 21.7003142,30.162432 C21.4123145,30.6206492 20.9643149,31.6733735 21.025115,32.6250552 C20.7323153,32.6234885 20.5835154,32.5522104 20.6867153,32.1543057 C20.7251153,32.0062663 20.6331152,31.9005239 20.5115155,32.0830275 C20.3771156,32.2843296 20.3123157,32.6281882 20.3123157,32.7754444 C20.3123157,33.6229501 21.3267145,33.7937044 21.7139143,33.614334 C22.833913,34.693235 25.0339109,34.4054438 25.7707101,34.0435699 L21.897114,23.4638469 C21.8179141,23.2641112 21.5339144,23.359671 21.6035144,23.5672394 Z M21.4691145,32.2819798 C21.3891145,31.8464778 21.9979139,31.0679003 22.7723132,30.3167377 C22.6075133,30.8062858 22.7099133,31.6498752 23.0331128,31.940471 C22.4715134,31.940471 21.8043141,32.0454301 21.4691145,32.2819798 L21.4691145,32.2819798 Z" id="Symbol,-Version-4.2"></path>
                        </g>
                    </g>
                </g>
            </g>
        </g>
    </g>
</svg>